<?xml version="1.0" encoding="utf-8"?>
<!-- Generator: Adobe Illustrator 22.1.0, SVG Export Plug-In . SVG Version: 6.00 Build 0)  -->
<svg version="1.1" id="Layer_1" xmlns="http://www.w3.org/2000/svg" xmlns:xlink="http://www.w3.org/1999/xlink" x="0px" y="0px"
	 viewBox="0 0 512 512" style="enable-background:new 0 0 512 512;" xml:space="preserve">
<g>
	<path d="M379.9,132.1c-5.4-29.1-30.7-51.1-61.4-51.1c-30.6,0-56,22.1-61.4,51.2C130,144.3,30.6,251.4,31,381.8
		C31.1,409,53.7,431,81,431h237.5c6.9,0,12.5-5.6,12.5-12.5c0-13.8-11.2-25-25-25h-62.1l28-37.8c18.9-28.3,8.1-69-26.3-83.3
		c-18.7-7.8-40.3-3.6-56.4,8.5l-25.6,19.2c-5.5,4.1-13.4,3.1-17.5-2.5c-4.1-5.5-3-13.4,2.5-17.5l27.2-20.4c28.8-21.6,69-21.6,97.8,0
		c8.5,6.4,35.8,30.5,31.9,72.8l92.6,98.4h70.6c6.9,0,12.5-5.6,12.5-12.5c0-13.8-11.2-25-25-25h-41.9l-77-81.8L457.8,244
		c14.3-8,23.2-23.2,23.2-39.6c0-16.7-9.2-32-23.8-40C425.5,147,379.9,132.1,379.9,132.1L379.9,132.1z M318.5,162.3
		c-10.4,0-18.7-8.4-18.7-18.7c0-10.4,8.4-18.7,18.7-18.7c10.4,0,18.7,8.4,18.7,18.7C337.3,153.9,328.9,162.3,318.5,162.3z"/>
</g>
</svg>
