<?xml version="1.0" encoding="iso-8859-1"?>
<!-- Generator: Adobe Illustrator 19.0.0, SVG Export Plug-In . SVG Version: 6.00 Build 0)  -->
<svg version="1.1" id="Layer_1" xmlns="http://www.w3.org/2000/svg" xmlns:xlink="http://www.w3.org/1999/xlink" x="0px" y="0px"
	 viewBox="0 0 512.003 512.003" style="enable-background:new 0 0 512.003 512.003;" xml:space="preserve">
<g>
	<g>
		<path d="M445.311,90.192c-12.117-21.917-29.8-40.462-51.131-53.627c-19.181-11.862-40.92-19.068-63.333-21.077
			C327.155,6.415,318.245,0,307.86,0h-16.037c-5.875,0-10.639,4.763-10.639,10.639c0,5.876,4.764,10.639,10.639,10.639h16.037
			c1.948,0,3.533,1.585,3.533,3.533v65.674c0,1.948-1.585,3.533-3.533,3.533h-79.091c-1.949,0-3.533-1.585-3.533-3.533v-0.609
			c0-0.038,0.005-0.076,0.005-0.113s-0.005-0.074-0.005-0.113V25.647c0-0.038,0.005-0.076,0.005-0.113s-0.005-0.074-0.005-0.113
			v-0.61c0-1.948,1.585-3.533,3.533-3.533c5.876,0,10.639-4.763,10.639-10.639C239.408,4.763,234.645,0,228.769,0
			c-10.156,0-18.903,6.137-22.737,14.895h-43.315h-26.401c-23.572,0-42.749,19.177-42.749,42.749
			c0,23.577,19.177,42.76,42.749,42.76h26.401h43.315c3.834,8.758,12.581,14.895,22.737,14.895h79.091
			c9.658,0,18.039-5.55,22.137-13.626c6.405,1.329,12.571,3.706,18.227,7.032c0.528,0.479,1.112,0.911,1.749,1.287
			c0.44,0.26,0.893,0.481,1.351,0.67c8.253,5.561,15.058,13.078,19.714,21.884c4.598,8.696,6.93,18.118,6.93,28.003
			c0,10.208-2.62,20.293-7.59,29.184c-5.325,9.578-13.159,17.524-22.669,22.985c-9.059,5.217-19.394,7.976-29.888,7.976h-4.642
			H252.36h-58.178c-1.469,0-2.952,0.024-4.365,0.071c-26.132,0.765-51.598,8.59-73.643,22.629c-0.022,0.015-0.045,0.03-0.068,0.045
			c-0.004,0.002-0.007,0.004-0.012,0.006c-0.005,0.003-0.01,0.007-0.015,0.011c-20.333,12.966-37.281,30.91-49.026,51.9
			c-0.094,0.159-0.182,0.318-0.267,0.48c-11.936,21.473-18.247,45.846-18.247,70.511c0,24.534,6.243,48.804,18.053,70.184
			c0.033,0.061,0.069,0.119,0.103,0.18c0.004,0.007,0.007,0.015,0.012,0.022c0.002,0.004,0.006,0.008,0.009,0.013
			c12.075,21.783,29.636,40.244,50.798,53.393c0.039,0.024,0.081,0.048,0.12,0.072c0.006,0.003,0.011,0.007,0.017,0.012
			c0.004,0.002,0.01,0.004,0.014,0.006c19.692,12.215,42.294,19.595,65.349,21.341c3.671,0.287,7.428,0.432,11.17,0.432h50.003
			h52.347h52.358h26.8c23.571,0,42.749-19.182,42.749-42.76c0-23.572-19.177-42.749-42.749-42.749h-26.8h-52.358h-52.347h-50.003
			c-0.636,0-1.272-0.008-1.9-0.035c-0.037-0.001-0.074-0.003-0.112-0.004c-10.73-0.347-21.176-3.582-30.228-9.371
			c-8.882-5.653-16.161-13.565-21.052-22.886c-4.483-8.533-6.854-18.163-6.854-27.85c0-10.16,2.591-20.195,7.5-29.035
			c4.978-8.994,12.218-16.617,20.947-22.05c9.499-5.927,20.459-9.06,31.697-9.06h3.907c0.007,0,0.015,0.001,0.022,0.001
			c0.005,0,0.011-0.001,0.017-0.001h54.232h60.821h4.642c27.193,0,53.729-7.573,76.739-21.899
			c20.962-13.047,38.395-31.305,50.406-52.787c12.102-21.579,18.498-46.12,18.498-70.967
			C463.466,135.939,457.186,111.607,445.311,90.192z M152.077,79.125h-15.762c-11.838,0-21.471-9.637-21.471-21.482
			c0-11.839,9.632-21.471,21.471-21.471h15.762V79.125z M203.957,79.125h-30.601V36.173h30.601V79.125z M359.529,447.769h16.161
			c11.839,0,21.471,9.632,21.471,21.471c0,11.846-9.632,21.482-21.471,21.482h-16.161V447.769z M307.171,447.769h31.08v42.952
			h-31.08V447.769z M254.824,447.769h31.068v42.952h-31.068V447.769z M201.219,447.769h32.327v42.952h-37.701L201.219,447.769z
			 M80.726,315.486l37.674,21.122c-2.411,6.132-4.069,12.553-4.934,19.099H70.289C71.488,341.803,75.021,328.18,80.726,315.486z
			 M70.288,376.985h43.182c0.801,6.053,2.279,12.006,4.401,17.719L80.39,416.479C74.883,403.998,71.464,390.624,70.288,376.985z
			 M160.093,440.273c6.315,2.923,12.987,5.012,19.84,6.23l-5.337,42.656c-12.757-2.038-25.186-6.081-36.71-11.949L160.093,440.273z
			 M142.109,428.889l-22.284,37.065c-11.399-8.535-21.285-18.978-29.184-30.822l37.214-21.618
			C131.927,419.227,136.72,424.399,142.109,428.889z M128.717,317.999l-37.633-21.1c7.609-11.259,17.048-21.252,27.872-29.508
			l23.469,36.153C137.288,307.786,132.678,312.644,128.717,317.999z M160.463,292.253l-23.544-36.269
			c13.657-7.111,28.534-11.616,43.872-13.272l5.331,42.617C177.227,286.212,168.565,288.554,160.463,292.253z M241.721,241.971
			v42.953h-34.204l-5.374-42.953L241.721,241.971L241.721,241.971z M302.541,284.925h-39.542v-42.953h39.542V284.925z
			 M351.59,86.476c-6.037-2.755-12.397-4.772-18.917-5.986V37.073c14.326,1.724,28.261,5.945,41.136,12.461L351.59,86.476z
			 M369.627,97.774l22.277-37.043c11.468,8.53,21.41,18.987,29.348,30.863l-37.219,21.618
			C379.918,107.469,375.073,102.276,369.627,97.774z M323.82,284.762V241.74c9.132-0.677,18.083-2.893,26.448-6.536l23.588,36.341
			C358.328,279.416,341.299,283.921,323.82,284.762z M391.945,260.334l-23.439-36.11c5.524-4.4,10.458-9.495,14.667-15.166
			l37.632,21.107C412.959,241.739,403.181,251.959,391.945,260.334z M431.195,211.595l-37.667-21.126
			c2.451-6.189,4.137-12.671,5.012-19.282h43.176C440.513,185.162,436.95,198.85,431.195,211.595z M398.536,149.909
			c-0.811-6.122-2.312-12.142-4.474-17.915l37.466-21.76c5.559,12.533,9.008,25.968,10.189,39.675H398.536z"/>
	</g>
</g>
<g>
	<g>
		<path d="M261.279,0h-1.947c-5.876,0-10.639,4.763-10.639,10.639c0,5.876,4.763,10.639,10.639,10.639h1.947
			c5.875,0,10.639-4.763,10.639-10.639C271.918,4.763,267.154,0,261.279,0z"/>
	</g>
</g>
<g>
</g>
<g>
</g>
<g>
</g>
<g>
</g>
<g>
</g>
<g>
</g>
<g>
</g>
<g>
</g>
<g>
</g>
<g>
</g>
<g>
</g>
<g>
</g>
<g>
</g>
<g>
</g>
<g>
</g>
</svg>
